<?xml version="1.0"?>
<svg xmlns:rdf="http://www.w3.org/1999/02/22-rdf-syntax-ns#" xmlns="http://www.w3.org/2000/svg" xmlns:cc="http://web.resource.org/cc/" xmlns:xlink="http://www.w3.org/1999/xlink" xmlns:dc="http://purl.org/dc/elements/1.1/" xmlns:svg="http://www.w3.org/2000/svg" id="svg2211" viewBox="0 0 87.583 98.532" version="1.0">
  <defs id="defs2214">
    <linearGradient id="linearGradient18230">
      <stop id="stop18232" stop-color="#d0bcba" offset="0"/>
      <stop id="stop18234" stop-color="#fefdfd" offset="1"/>
    </linearGradient>
    <linearGradient id="linearGradient15966">
      <stop id="stop15968" stop-color="#d0bcba" offset="0"/>
      <stop id="stop15970" stop-color="#6c6c6c" offset="1"/>
    </linearGradient>
    <linearGradient id="linearGradient15958">
      <stop id="stop15960" stop-color="#978888" offset="0"/>
      <stop id="stop15962" stop-color="#fbfcfc" offset="1"/>
    </linearGradient>
    <linearGradient id="linearGradient3471" y2="50.55" gradientUnits="userSpaceOnUse" x2="14.182" gradientTransform="translate(178.82 49.446)" y1="36.486" x1="-33.818">
      <stop id="stop3198" stop-color="#be9e70" offset="0"/>
      <stop id="stop3200" stop-color="#694c30" offset="1"/>
    </linearGradient>
    <linearGradient id="linearGradient3473" y2="70.698" gradientUnits="userSpaceOnUse" x2="196.21" y1="88.996" x1="195.93">
      <stop id="stop14981" stop-color="#e40102" offset="0"/>
      <stop id="stop14983" stop-color="#bb7874" offset="1"/>
    </linearGradient>
    <linearGradient id="linearGradient3475" y2="103.62" gradientUnits="userSpaceOnUse" x2="195.93" y1="72.996" x1="195.93">
      <stop id="stop14004" stop-color="#7c1f16" offset="0"/>
      <stop id="stop14006" stop-color="#7c1f16" stop-opacity="0" offset="1"/>
    </linearGradient>
    <linearGradient id="linearGradient3477" y2="88.711" gradientUnits="userSpaceOnUse" x2="196.69" gradientTransform="translate(0 .15069)" y1="81.096" x1="197.62">
      <stop id="stop6197" stop-color="#aa090a" offset="0"/>
      <stop id="stop6199" stop-color="#e50102" offset="1"/>
    </linearGradient>
    <radialGradient id="radialGradient3479" gradientUnits="userSpaceOnUse" cy="132.31" cx="196.92" gradientTransform="matrix(0 .98878 -1.0116 0 343.81 -116.14)" r="21">
      <stop id="stop3218" stop-color="#fffefe" offset="0"/>
      <stop id="stop3220" stop-color="#d5d7da" offset="1"/>
    </radialGradient>
    <linearGradient id="linearGradient3481" y2="92.452" xlink:href="#linearGradient18230" gradientUnits="userSpaceOnUse" x2="279.57" gradientTransform="translate(-34.405 9.1577)" y1="94.043" x1="281.2"/>
    <linearGradient id="linearGradient3483" y2="122.7" xlink:href="#linearGradient18230" gradientUnits="userSpaceOnUse" x2="223.51" gradientTransform="translate(29.5,-14)" y1="113.87" x1="213.3"/>
    <linearGradient id="linearGradient3485" y2="35.012" xlink:href="#linearGradient15958" gradientUnits="userSpaceOnUse" x2="219.23" gradientTransform="matrix(1.078 0 0 1.0746 -55.113 33.894)" y1="35.012" x1="221.62"/>
    <linearGradient id="linearGradient3487" y2="26.507" xlink:href="#linearGradient15966" gradientUnits="userSpaceOnUse" x2="250.11" gradientTransform="translate(-68.059 38.978)" y1="38.571" x1="250.11"/>
    <linearGradient id="linearGradient3489" y2="35.012" xlink:href="#linearGradient15958" gradientUnits="userSpaceOnUse" x2="219.23" gradientTransform="matrix(1.078 0 0 1.0746 -47.594 33.894)" y1="35.012" x1="221.62"/>
    <linearGradient id="linearGradient3491" y2="26.507" xlink:href="#linearGradient15966" gradientUnits="userSpaceOnUse" x2="250.11" gradientTransform="translate(-60.54 38.978)" y1="38.571" x1="250.11"/>
    <linearGradient id="linearGradient3493" y2="35.012" xlink:href="#linearGradient15958" gradientUnits="userSpaceOnUse" x2="219.23" gradientTransform="matrix(1.078 0 0 1.0746 -40.075 33.894)" y1="35.012" x1="221.62"/>
    <linearGradient id="linearGradient3495" y2="26.507" xlink:href="#linearGradient15966" gradientUnits="userSpaceOnUse" x2="250.11" gradientTransform="translate(-53.02 38.978)" y1="38.571" x1="250.11"/>
    <linearGradient id="linearGradient3497" y2="35.012" xlink:href="#linearGradient15958" gradientUnits="userSpaceOnUse" x2="219.23" gradientTransform="matrix(1.078 0 0 1.0746 -32.555 33.894)" y1="35.012" x1="221.62"/>
    <linearGradient id="linearGradient3499" y2="26.507" xlink:href="#linearGradient15966" gradientUnits="userSpaceOnUse" x2="250.11" gradientTransform="translate(-45.501 38.978)" y1="38.571" x1="250.11"/>
    <linearGradient id="linearGradient3501" y2="35.012" xlink:href="#linearGradient15958" gradientUnits="userSpaceOnUse" x2="219.23" gradientTransform="matrix(1.078 0 0 1.0746 -25.036 33.894)" y1="35.012" x1="221.62"/>
    <linearGradient id="linearGradient3503" y2="26.507" xlink:href="#linearGradient15966" gradientUnits="userSpaceOnUse" x2="250.11" gradientTransform="translate(-37.982 38.978)" y1="38.571" x1="250.11"/>
  </defs>
  <g id="layer1" transform="translate(-189.46 -30.067)">
    <g id="g3439" transform="matrix(1.8247 0 0 1.8247 -180.72 -66.388)">
      <g id="g3208" transform="matrix(.97959 0 0 1.0192 60.834 -13.774)">
        <rect id="rect2221" rx="1.5603" ry="1.4979" height="48" width="48" y="70.362" x="146" fill="#694c30"/>
        <rect id="rect3194" rx="1.5603" ry="1.4979" height="48" width="48" y="69.362" x="145" fill="url(#linearGradient3471)"/>
      </g>
      <g id="g3432">
        <g id="g6203" transform="matrix(1 0 0 .99883 29.259 -13.929)">
          <rect id="rect3212" height="15.4" width="41.4" stroke="url(#linearGradient3475)" stroke-linecap="round" y="73.296" x="176.96" stroke-width=".6" fill="url(#linearGradient3473)"/>
          <path id="rect5193" d="m177.05 73.952l-0.11 14.574c0.32 0.033 41.16-0.001 41.28 0 0.09 0 0.09-0.701 0.03-2.625-10.58-0.126-14.14-2.362-18.87-4.438-4.29-1.736-13.48-0.083-17.82-1.312-3.19-1.336-2.97-2.639-4.51-6.199z" fill="url(#linearGradient3477)"/>
        </g>
        <path id="text2379" d="m208.7 67.164h1.89l2.39 4.5v-4.5h1.6v6.561h-1.89l-2.38-4.5v4.5h-1.61v-6.561m9.8 2.646c-0.35 0-0.62 0.126-0.8 0.378-0.18 0.249-0.28 0.609-0.28 1.081 0 0.471 0.1 0.833 0.28 1.085 0.18 0.249 0.45 0.374 0.8 0.374 0.34 0 0.6-0.125 0.78-0.374 0.18-0.252 0.28-0.614 0.28-1.085 0-0.472-0.1-0.832-0.28-1.081-0.18-0.252-0.44-0.378-0.78-0.378m0-1.125c0.84 0 1.5 0.228 1.98 0.685s0.71 1.09 0.71 1.899c0 0.808-0.23 1.441-0.71 1.898s-1.14 0.686-1.98 0.686c-0.85 0-1.52-0.229-2-0.686s-0.71-1.09-0.71-1.898c0-0.809 0.23-1.442 0.71-1.899s1.15-0.685 2-0.685m3.22 0.118h1.58l1.22 3.402 1.22-3.402h1.58l-1.94 4.922h-1.72l-1.94-4.922" fill="#fff"/>
      </g>
      <g id="g3416">
        <g id="g3403">
          <g id="g3392">
            <rect id="rect3214" height="29.366" width="41.4" stroke="#afa497" stroke-linecap="round" y="75.136" x="206.17" stroke-width=".59965" fill="url(#radialGradient3479)"/>
            <g id="g11086" stroke-opacity=".10135" transform="matrix(1 0 0 .99883 -20.881 -12.446)" stroke="#c60002" stroke-width="1px" fill="none">
              <path id="path9134" d="m227.38 90.874h41.19"/>
              <path id="path9136" d="m227.38 94.881h41.19"/>
              <path id="path9138" d="m227.38 114.92h41.19"/>
              <path id="path9140" d="m227.38 110.91h41.19"/>
              <path id="path9142" d="m227.38 106.9h41.19"/>
              <path id="path9144" d="m227.38 102.89h41.19"/>
              <path id="path9146" d="m227.38 98.888h41.19"/>
            </g>
          </g>
          <path id="path17237" opacity=".53898" d="m247.46 97.631c-1.36 2.869-3.05 4.719-5.62 6.649 2.09 0.31 3.98-0.46 5.03-0.9 0.37-1.71 0.67-4.033 0.59-5.749z" fill-rule="evenodd" stroke="url(#linearGradient3483)" stroke-width=".453" fill="url(#linearGradient3481)"/>
        </g>
        <path id="text2383" d="m219.24 94.012h5.78v2.487h-9.54v-2.487l4.79-4.228c0.43-0.387 0.74-0.765 0.95-1.134 0.2-0.369 0.31-0.753 0.31-1.151 0-0.615-0.21-1.11-0.63-1.485-0.41-0.375-0.96-0.563-1.64-0.563-0.53 0-1.11 0.114-1.73 0.343-0.63 0.222-1.3 0.556-2.01 1.002v-2.883c0.76-0.252 1.51-0.442 2.25-0.571 0.75-0.135 1.48-0.202 2.19-0.203 1.57 0.001 2.79 0.346 3.66 1.038 0.87 0.691 1.31 1.655 1.31 2.891 0 0.715-0.19 1.383-0.56 2.004-0.36 0.615-1.14 1.442-2.32 2.479l-2.81 2.461m13.96-7.849l-3.71 5.493h3.71v-5.493m-0.56-2.786h3.76v8.279h1.87v2.452h-1.87v2.391h-3.2v-2.391h-5.82v-2.9l5.26-7.831"/>
      </g>
      <g id="g16973" stroke-width=".666" stroke-linecap="round" transform="matrix(1 0 0 .99883 29.782 -12.546)">
        <rect id="rect14987" rx="1.4293" ry="2.2434" height="11.397" width="2.8586" stroke="url(#linearGradient3487)" y="65.818" x="180.63" fill="url(#linearGradient3485)"/>
        <rect id="rect15974" rx="1.4293" ry="2.2434" height="11.397" width="2.8586" stroke="url(#linearGradient3491)" y="65.818" x="188.14" fill="url(#linearGradient3489)"/>
        <rect id="rect15980" rx="1.4293" ry="2.2434" height="11.397" width="2.8586" stroke="url(#linearGradient3495)" y="65.818" x="195.66" fill="url(#linearGradient3493)"/>
        <rect id="rect15986" rx="1.4293" ry="2.2434" height="11.397" width="2.8586" stroke="url(#linearGradient3499)" y="65.818" x="203.18" fill="url(#linearGradient3497)"/>
        <rect id="rect15992" rx="1.4293" ry="2.2434" height="11.397" width="2.8586" stroke="url(#linearGradient3503)" y="65.818" x="210.7" fill="url(#linearGradient3501)"/>
      </g>
    </g>
  </g>
  <metadata>
    <rdf:RDF>
      <cc:Work>
        <dc:format>image/svg+xml</dc:format>
        <dc:type rdf:resource="http://purl.org/dc/dcmitype/StillImage"/>
        <cc:license rdf:resource="http://creativecommons.org/licenses/publicdomain/"/>
        <dc:publisher>
          <cc:Agent rdf:about="http://openclipart.org/">
            <dc:title>Openclipart</dc:title>
          </cc:Agent>
        </dc:publisher>
        <dc:title>spiral_calendar</dc:title>
        <dc:date>2007-09-27T09:15:12</dc:date>
        <dc:description>A spiral calendar</dc:description>
        <dc:source>http://openclipart.org/detail/6178/spiral_calendar-by-alcaline</dc:source>
        <dc:creator>
          <cc:Agent>
            <dc:title>alcaline</dc:title>
          </cc:Agent>
        </dc:creator>
        <dc:subject>
          <rdf:Bag>
            <rdf:li>clip art</rdf:li>
            <rdf:li>clipart</rdf:li>
            <rdf:li>icon</rdf:li>
            <rdf:li>image</rdf:li>
            <rdf:li>media</rdf:li>
            <rdf:li>office</rdf:li>
            <rdf:li>png</rdf:li>
            <rdf:li>public domain</rdf:li>
            <rdf:li>svg</rdf:li>
          </rdf:Bag>
        </dc:subject>
      </cc:Work>
      <cc:License rdf:about="http://creativecommons.org/licenses/publicdomain/">
        <cc:permits rdf:resource="http://creativecommons.org/ns#Reproduction"/>
        <cc:permits rdf:resource="http://creativecommons.org/ns#Distribution"/>
        <cc:permits rdf:resource="http://creativecommons.org/ns#DerivativeWorks"/>
      </cc:License>
    </rdf:RDF>
  </metadata>
</svg>
